# Blender v2.79 (sub 0) OBJ File: 'woodenTable.blend'
# www.blender.org
o Cube.004_Cube.005
v -3.169000 2.548293 1.951853
v -3.169000 3.221513 1.951853
v -3.169000 2.548293 -3.671116
v -3.169000 3.221513 -3.671116
v 1.407424 2.548293 1.958863
v 1.407424 3.221513 1.958863
v 1.407424 2.548293 -3.664106
v 1.407424 3.221513 -3.664106
v 0.424842 -0.001539 -2.755960
v 0.424842 3.211277 -2.755960
v 0.424842 -0.001539 -3.244375
v 0.424842 3.211277 -3.244375
v 0.913257 -0.001539 -2.755960
v 0.913257 3.211277 -2.755960
v 0.913257 -0.001539 -3.244375
v 0.913257 3.211277 -3.244375
v -2.778130 -0.001539 -2.755960
v -2.778130 3.211277 -2.755960
v -2.778130 -0.001539 -3.244375
v -2.778130 3.211277 -3.244375
v -2.289715 -0.001539 -2.755960
v -2.289715 3.211277 -2.755960
v -2.289715 -0.001539 -3.244375
v -2.289715 3.211277 -3.244375
v 0.424842 -0.001539 1.458806
v 0.424842 3.211277 1.458806
v 0.424842 -0.001539 0.970391
v 0.424842 3.211277 0.970391
v 0.913257 -0.001539 1.458806
v 0.913257 3.211277 1.458806
v 0.913257 -0.001539 0.970391
v 0.913257 3.211277 0.970391
v -2.778130 -0.001539 1.458806
v -2.778130 3.211277 1.458806
v -2.778130 -0.001539 0.970391
v -2.778130 3.211277 0.970391
v -2.289715 -0.001539 1.458806
v -2.289715 3.211277 1.458806
v -2.289715 -0.001539 0.970391
v -2.289715 3.211277 0.970391
vt 0.614061 0.689090
vt 0.000192 0.762587
vt 0.614061 0.762587
vt 0.499808 0.762970
vt 0.000192 0.836467
vt 0.499808 0.836467
vt 0.000192 0.615210
vt 0.614061 0.688707
vt 0.000192 0.688707
vt 0.000192 0.836850
vt 0.499808 0.910347
vt 0.000192 0.910347
vt 0.499808 0.614061
vt 0.000192 0.000957
vt 0.000192 0.614827
vt 0.999808 0.614061
vt 0.500192 0.000957
vt 0.999808 0.000192
vt 0.000000 0.000000
vt 0.000000 0.000000
vt 0.000000 0.000000
vt 0.000000 0.000000
vt 0.000000 0.000000
vt 0.000000 0.000000
vt 0.000000 0.000000
vt 0.000000 0.000000
vt 0.000000 0.000000
vt 0.000000 0.000000
vt 0.000000 0.000000
vt 0.000000 0.000000
vt 0.000000 0.000000
vt 0.000000 0.000000
vt 0.000000 0.000000
vt 0.000000 0.000000
vt 0.000000 0.000000
vt 0.000000 0.000000
vt 0.000000 0.000000
vt 0.000000 0.000000
vt 0.000000 0.000000
vt 0.000000 0.000000
vt 0.000000 0.000000
vt 0.000000 0.000000
vt 0.000000 0.000000
vt 0.000000 0.000000
vt 0.000000 0.000000
vt 0.000000 0.000000
vt 0.000000 0.000000
vt 0.000000 0.000000
vt 0.000000 0.000000
vt 0.000000 0.000000
vt 0.000192 0.689090
vt 0.000192 0.762970
vt 0.614061 0.615210
vt 0.499808 0.836850
vt 0.499808 0.000192
vt 0.500192 0.614827
vn -1.0000 0.0000 0.0000
vn 0.0015 0.0000 -1.0000
vn 1.0000 0.0000 0.0000
vn -0.0015 0.0000 1.0000
vn 0.0000 -1.0000 0.0000
vn 0.0000 1.0000 0.0000
vn 0.0000 0.0000 -1.0000
vn 0.0000 0.0000 1.0000
s off
f 2/1/1 3/2/1 1/3/1
f 4/4/2 7/5/2 3/6/2
f 8/7/3 5/8/3 7/9/3
f 6/10/4 1/11/4 5/12/4
f 7/13/5 1/14/5 3/15/5
f 8/16/6 2/17/6 6/18/6
f 10/19/1 11/20/1 9/21/1
f 12/22/7 15/23/7 11/20/7
f 16/24/3 13/25/3 15/23/3
f 14/26/8 9/21/8 13/25/8
f 15/23/5 9/21/5 11/20/5
f 12/22/6 14/26/6 16/24/6
f 18/27/1 19/28/1 17/29/1
f 20/30/7 23/31/7 19/28/7
f 24/32/3 21/33/3 23/31/3
f 22/34/8 17/29/8 21/33/8
f 23/31/5 17/29/5 19/28/5
f 20/30/6 22/34/6 24/32/6
f 26/35/1 27/36/1 25/37/1
f 28/38/7 31/39/7 27/36/7
f 32/40/3 29/41/3 31/39/3
f 30/42/8 25/37/8 29/41/8
f 31/39/5 25/37/5 27/36/5
f 28/38/6 30/42/6 32/40/6
f 34/43/1 35/44/1 33/45/1
f 36/46/7 39/47/7 35/44/7
f 40/48/3 37/49/3 39/47/3
f 38/50/8 33/45/8 37/49/8
f 39/47/5 33/45/5 35/44/5
f 36/46/6 38/50/6 40/48/6
f 2/1/1 4/51/1 3/2/1
f 4/4/2 8/52/2 7/5/2
f 8/7/3 6/53/3 5/8/3
f 6/10/4 2/54/4 1/11/4
f 7/13/5 5/55/5 1/14/5
f 8/16/6 4/56/6 2/17/6
f 10/19/1 12/22/1 11/20/1
f 12/22/7 16/24/7 15/23/7
f 16/24/3 14/26/3 13/25/3
f 14/26/8 10/19/8 9/21/8
f 15/23/5 13/25/5 9/21/5
f 12/22/6 10/19/6 14/26/6
f 18/27/1 20/30/1 19/28/1
f 20/30/7 24/32/7 23/31/7
f 24/32/3 22/34/3 21/33/3
f 22/34/8 18/27/8 17/29/8
f 23/31/5 21/33/5 17/29/5
f 20/30/6 18/27/6 22/34/6
f 26/35/1 28/38/1 27/36/1
f 28/38/7 32/40/7 31/39/7
f 32/40/3 30/42/3 29/41/3
f 30/42/8 26/35/8 25/37/8
f 31/39/5 29/41/5 25/37/5
f 28/38/6 26/35/6 30/42/6
f 34/43/1 36/46/1 35/44/1
f 36/46/7 40/48/7 39/47/7
f 40/48/3 38/50/3 37/49/3
f 38/50/8 34/43/8 33/45/8
f 39/47/5 37/49/5 33/45/5
f 36/46/6 34/43/6 38/50/6
